# xmcd CD database file
#
# Track frame offsets:
#	150
#	22067
#	42329
#	60254
#	74482
#	87774
#	101787
#	118746
#	139540
#	151839
#	177782
#
# Disc length: 2558 seconds
#
# Revision: 1
# Processed by: cddbd v1.5.2PL0 Copyright (c) Steve Scherf et al.
# Submitted via: CDex 1.51
#
DISCID=8d09fc0b
DTITLE=Charlotte Gainsbourg - 5:55
DYEAR=2006
DGENRE=Frenchpop
TTITLE0=5:55
TTITLE1=Af607105
TTITLE2=The Operation
TTITLE3=Tel Que Tu Es
TTITLE4=The Songs That We Sing
TTITLE5=Beauty Mark
TTITLE6=Little Monsters
TTITLE7=Jamais
TTITLE8=Night-Time Intermission
TTITLE9=Everything I Cannot See
TTITLE10=Morning Song
EXTD=YEAR: 2006
EXTT0=
EXTT1=
EXTT2=
EXTT3=
EXTT4=
EXTT5=
EXTT6=
EXTT7=
EXTT8=
EXTT9=
EXTT10=
PLAYORDER=
